<?xml version="1.0" standalone="no"?>
<!DOCTYPE svg PUBLIC "-//W3C//DTD SVG 20010904//EN"
 "http://www.w3.org/TR/2001/REC-SVG-20010904/DTD/svg10.dtd">
<svg version="1.0" xmlns="http://www.w3.org/2000/svg"
 width="747.000000pt" height="747.000000pt" viewBox="0 0 747.000000 747.000000"
 preserveAspectRatio="xMidYMid meet">
<metadata>
Created by potrace 1.14, written by Peter Selinger 2001-2017
</metadata>
<g transform="translate(0.000000,747.000000) scale(0.100000,-0.100000)"
fill="#000000" stroke="none">
<path d="M1244 4934 l0 -2374 71 0 c38 -1 136 -1 216 -1 l146 0 -1 -120 c-1
-67 3 -123 8 -126 5 -3 278 -6 607 -6 l598 0 32 -46 c68 -96 200 -211 306
-265 40 -20 126 -52 178 -65 55 -14 153 -24 223 -22 l42 1 0 199 0 198 1288 1
c708 0 1294 1 1303 1 14 1 15 228 15 2299 l-1 2297 -120 2 c-66 0 -129 2 -141
2 -20 1 -21 5 -20 184 1 100 0 189 -2 198 -3 15 -204 16 -2376 16 l-2372 0 0
-2373z m4582 2100 l-1 -127 -2075 -1 -2074 -1 -1 -2090 0 -2090 -140 0 -140 0
-1 2218 0 2217 2216 0 2216 0 0 -126z m-1516 -475 c0 -27 -1 -49 -2 -50 -2 0
-25 -2 -53 -5 -204 -20 -455 -108 -612 -215 -205 -139 -387 -351 -478 -557
-16 -38 -28 -48 -97 -82 l-78 -38 6 27 c4 14 26 68 50 119 167 353 455 620
820 758 89 33 253 73 334 80 36 4 66 7 67 8 1 1 11 2 23 3 18 2 20 -4 20 -48z
m-1235 -1098 c-7 -28 -11 -52 -8 -55 2 -2 -22 -24 -54 -47 -124 -92 -246 -236
-322 -381 -45 -85 -96 -238 -107 -318 -4 -30 -7 -335 -8 -677 -1 -342 -3 -623
-6 -626 -3 -2 -27 -7 -53 -9 l-48 -6 4 667 c4 724 1 690 62 868 84 242 276
476 495 601 30 18 56 32 57 32 0 0 -5 -22 -12 -49z m-31 -2256 c0 -96 -2 -177
-5 -179 -2 -3 -33 -8 -67 -12 l-62 -6 1 153 0 154 62 31 c34 17 64 32 67 33 3
0 5 -78 4 -174z m-3 -324 c0 -3 2 -103 4 -221 2 -185 5 -223 23 -270 31 -85
62 -136 117 -192 l50 -52 -49 35 c-104 73 -202 206 -246 333 -27 80 -34 126
-34 251 l-1 109 45 4 c25 1 50 4 55 6 17 5 35 3 36 -3z"/>
<path d="M2108 1362 l-28 -3 0 -614 0 -613 384 0 c429 0 433 1 459 66 9 21 12
41 7 46 -5 4 -141 8 -303 8 -215 0 -297 3 -299 11 -2 7 -3 256 -3 555 l1 542
-50 1 c-28 0 -71 1 -96 2 -25 1 -57 1 -72 -1z"/>
<path d="M4478 1032 l-38 -3 0 -449 0 -448 372 0 c227 0 383 4 402 10 42 14
75 46 94 88 14 30 16 92 18 418 1 381 1 382 -20 383 -96 2 -799 3 -828 1z
m608 -450 c1 -236 -2 -332 -10 -333 -17 0 -274 -1 -341 0 l-60 1 1 328 c1 180
2 329 3 332 1 3 92 5 204 5 l202 0 1 -333z"/>
<path d="M3249 996 c-3 -101 -4 -834 -1 -848 4 -15 39 -16 395 -16 216 0 408
4 428 9 30 7 40 17 52 46 8 21 13 43 10 49 -3 9 -86 12 -306 12 -166 1 -312 1
-323 1 -21 1 -22 5 -20 115 0 63 4 117 7 120 4 4 114 7 245 8 132 1 253 6 269
11 47 15 96 56 111 93 10 25 14 85 14 232 l0 199 -440 0 -440 0 -1 -31z m657
-234 l1 -152 -66 -1 c-36 0 -129 -1 -206 -1 l-140 -2 -3 144 c-1 79 -1 149 1
155 3 7 75 10 208 10 l204 0 1 -153z"/>
</g>
</svg>
